<svg xmlns="http://www.w3.org/2000/svg" xmlns:xlink="http://www.w3.org/1999/xlink" viewBox="0 0 600 600"><defs><style>.cls-1{opacity:0.2;fill:url(#Degradado_sin_nombre_13);}.cls-2{opacity:0.5;}.cls-3{fill:#333;}.cls-4{fill:#fff;}.cls-5{fill:#838383;}</style><linearGradient id="Degradado_sin_nombre_13" x1="-151.2" y1="718.21" x2="753.33" y2="-120.19" gradientUnits="userSpaceOnUse"><stop offset="0" stop-color="#8e8e8e"/><stop offset="0.22" stop-color="#858585"/><stop offset="0.57" stop-color="#6b6b6b"/><stop offset="1" stop-color="#454545"/></linearGradient></defs><g id="Capa_2" data-name="Capa 2"><g id="Logo"><rect class="cls-1" width="600" height="600"/><g class="cls-2"><polygon class="cls-3" points="484.91 240.98 386.98 240.98 386.37 242.97 384.97 241.01 204.79 240.99 203.65 242.47 202.25 240.99 168.3 240.99 92.03 335.94 115.09 359.01 155.68 359.01 157.87 356.29 160.24 359.01 194.27 359.01 195.42 357.54 196.82 359.01 379.27 359.02 379.72 357.55 381 359.02 478.94 359.02 507.97 264.04 484.91 240.98"/><polygon class="cls-4" points="293.73 250.01 270.42 326.96 326 326.96 331.29 309.66 293.16 309.66 305.99 267.31 344.23 267.31 349.53 249.98 293.73 250.01"/><polygon class="cls-4" points="393.63 249.98 384.81 278.86 364.1 278.86 372.84 250.01 355.34 250.01 332.03 326.96 349.53 326.96 358.27 298.11 378.92 298.11 370.1 326.96 387.61 326.96 411.14 249.98 393.63 249.98"/><polygon class="cls-4" points="209.19 249.99 177.96 290.12 190.12 249.99 172.61 249.99 110.8 326.94 128.3 326.94 162.02 284.97 149.31 326.94 166.81 326.94 198.04 286.81 185.88 326.94 203.39 326.94 226.7 249.99 209.19 249.99"/><path class="cls-4" d="M288.1,250H243.82v0H232.3L209,327h55.58Zm-43.54,17.33H265.3l-13,42.35H231.73Z"/><path class="cls-4" d="M472.75,250H428.47v0H416.94L393.64,327h55.57Zm-43.54,17.33H450L437,309.66H416.38Z"/><path class="cls-5" d="M341.24,368.37l.42-1,1.34-1.5a5.34,5.34,0,0,1,1.71-2A3.73,3.73,0,0,1,345,363a3.24,3.24,0,0,0,.31-1.13l.47-.83c.14-.14.21-.24.21-.31a2.12,2.12,0,0,0-.42-.63l-.26-1.08c0-.28-.91-1.19-2.74-2.75h-.42l-3.73-1.81-.21-.52-.41-.1-.52.21h-.1l-1.76-.52a21,21,0,0,1-2.8-.88.43.43,0,0,1-.31.1l-2.08-.46a2.23,2.23,0,0,1-1.06-.44,1.94,1.94,0,0,0-.88-.47,2.43,2.43,0,0,1-.91-.44,1.17,1.17,0,0,0-.83-.21l-1.29.31c0-.1-.49-.27-1.45-.51-.14-.35-.25-.52-.31-.52l-1.51.21c-1-.49-1.52-.73-1.55-.73a17.3,17.3,0,0,1-1.81-.28,6.17,6.17,0,0,1-2-.6,6.13,6.13,0,0,0-1.4-.62l-.31-.31a1.39,1.39,0,0,0-.57-.21h-.93a1.48,1.48,0,0,1-.86-.52,8.07,8.07,0,0,0-1.4-1,4.51,4.51,0,0,1-1.5-1.63,5,5,0,0,1-.7-2.25.29.29,0,0,1-.1-.21l.31-1.66a10.91,10.91,0,0,1,2.95-5.85,3.17,3.17,0,0,1,1.71-2l.21-.72a22.41,22.41,0,0,0,2.15-2.07,5.7,5.7,0,0,1,1.47-1.27,8.6,8.6,0,0,0,1.3-.91l.93-.41c0-.31.74-1.05,2.31-2.2a19.5,19.5,0,0,1,3.68-2.28,16.52,16.52,0,0,0,1.76-.8,12.64,12.64,0,0,1,2.57-.78c.34-.93.89-1.4,1.65-1.4h.78l1-1,1.39.11.57-.65a2,2,0,0,1,1.56-.54l6.26-1.92h.42l.41.11c.28,0,.63-.25,1.06-.73a2.15,2.15,0,0,1,1.68-.72,1.77,1.77,0,0,1,.78.41.09.09,0,0,0,.1.1l1.35-.41,1.61.1,2-.51a6.1,6.1,0,0,1,3.36.93l.1-.21v-.31c0-.59.33-.88,1-.88.27,0,.45.07.52.21l.62.36h.36a10.78,10.78,0,0,1,1.35.62,2.91,2.91,0,0,1,1-.52,1.8,1.8,0,0,1,1.55.83l.88-.1c.28-.28.45-.42.52-.42s.48.28.83.83l.31.1h1.29c.07,0,.21.11.42.32l.57.46a5,5,0,0,1,.57.67,2.09,2.09,0,0,0,.36.47,13.08,13.08,0,0,1,1.45-.57c.34,0,.6.29.78.88a1.9,1.9,0,0,0,.9,1.43,1.89,1.89,0,0,1,.91,1.47,1.73,1.73,0,0,1,1.14,1.66l1,2.53-.21.88a5.29,5.29,0,0,1,.42.94l-.21,1.91.21,2a3.37,3.37,0,0,1-1.5,2.75,2.22,2.22,0,0,0-1,.44,3.74,3.74,0,0,1-.81.44,2,2,0,0,1-1.78-.65,4.18,4.18,0,0,0-.86-1,1,1,0,0,1-.41-.83,3.07,3.07,0,0,1,1.6-2.33,1.15,1.15,0,0,0,1-.46,1.9,1.9,0,0,0-.47-1.5,8.75,8.75,0,0,1-1-1.14,5.37,5.37,0,0,0-1.16-1.17,3.47,3.47,0,0,1-1-1.11c-.26-.45-.49-.68-.7-.68l-.72.11-1.51-.31a18.27,18.27,0,0,1-4.34-1.09h-1l-2.8-.41a5.56,5.56,0,0,1-2.07.31l-3.41.51-1.4-.1c-.11,0-1.06.3-2.85.88l-.52.1h-1.4c-.06,0-.5.18-1.32.52a14.06,14.06,0,0,1-2,.73l-.47.2a.42.42,0,0,1-.31.11l-.83-.11-4.55,2.23-.73-.41a5.61,5.61,0,0,0-1-.42.65.65,0,0,0-.73.73l-.1,1a6.53,6.53,0,0,0-.88.62,1.29,1.29,0,0,1-.52.31h-.62a1.6,1.6,0,0,0-1.16.55,1.84,1.84,0,0,1-1,.59,3.93,3.93,0,0,0-1.19.47c-.07.14-.35.27-.83.41a1.8,1.8,0,0,0-1.11,1c-.26.5-.57.75-.91.75l-1-.21-.56,1c-.73.17-1.14.28-1.25.31a6.34,6.34,0,0,1-1.34,1.35,15.41,15.41,0,0,0-1.32,1,3.48,3.48,0,0,0-.94,1.11,2.19,2.19,0,0,1-.85.91,2.62,2.62,0,0,0-1,1.37l-.52.52a3.08,3.08,0,0,0-1.3,2.33c0,.58.42,1,1.25,1.29a6.28,6.28,0,0,1,1.55.67,1.39,1.39,0,0,0,.93.26,2.86,2.86,0,0,1,1.19.26l1.92.83c.17.55.34.83.52.83s.2-.14.41-.42a1.11,1.11,0,0,1,.93-.41,1.72,1.72,0,0,1,1.3.83l.41-.31H325l.67.2h.1l.62-.31a.43.43,0,0,1,.31-.1,11.56,11.56,0,0,1,1.61.52h.1a6,6,0,0,0,.83-.21,3,3,0,0,1,.88.31l.72.42q0,.15.21.15a1.49,1.49,0,0,0,.62-.23,1.59,1.59,0,0,1,.78-.24,1.39,1.39,0,0,1,.93.57,5.51,5.51,0,0,1,.93-.36,3.71,3.71,0,0,1,1.61.78l1,.21H338l1.71.31a6,6,0,0,0,1.5,1.19.65.65,0,0,1,.72-.57,7.83,7.83,0,0,1,2.54.67l.41.1.42.31a7.89,7.89,0,0,1,1.08-.2c.69,0,1,.24,1,.72a5.87,5.87,0,0,1-.31,1.61c.07,0,.17.07.31.2a1.3,1.3,0,0,1,.57-.41l.83-.47a.57.57,0,0,1,.31-.2,6.54,6.54,0,0,1,3.36,1.65A5.89,5.89,0,0,1,355,356.3a3.25,3.25,0,0,0,.41,1.45l-.21.68.11.82a4.14,4.14,0,0,1-.21.73l-.1.78a1.17,1.17,0,0,1-.31.36,1,1,0,0,0-.32.36l.32.88v.21q0,.21-.39.57a1.6,1.6,0,0,0-.49.67,2.18,2.18,0,0,1-.37.65,2,2,0,0,0-.36.8c-.07.31-.41.67-1,1.06s-.91.7-.91.91.07.31.21.31a2.08,2.08,0,0,0,1.32-.6,3.68,3.68,0,0,1,1.06-.7,5.89,5.89,0,0,0,1.24-.62l4.86-2.27q5.43-2.6,6-2.59a.73.73,0,0,1,.83.82,2.74,2.74,0,0,1-.73,1.2c-.06,1.62-.77,2.57-2.12,2.84a4.72,4.72,0,0,0-1.19,1.09h-.41a3.88,3.88,0,0,1-2.95,1.45H359a7.09,7.09,0,0,1-4.66,2.12c-1.21,1.21-2.21,1.82-3,1.82l-.82.2a5.86,5.86,0,0,1-1.82.52c-.07,0-.2.14-.41.41l-.78.57a5.23,5.23,0,0,0-2.12,1.14,4.94,4.94,0,0,1-1.73,1.06,6.88,6.88,0,0,0-1.27.44q-.67.31-5.44,3.53l-.67.2a8.48,8.48,0,0,0-2.54,1.53,4.73,4.73,0,0,1-1.24,1h-.21a4.46,4.46,0,0,0-2.79,1.55c-.07.18-.82.46-2.26.86a15.36,15.36,0,0,0-4.11,1.83c-.83.21-1.85.49-3.06.83a17.4,17.4,0,0,1-2.64.62l-3.62.78c-.79.14-1.71.35-2.74.62a5.5,5.5,0,0,0-1.61-.31l-.93.11a1.37,1.37,0,0,1-.65-.37,5.71,5.71,0,0,0-1.16-.7c-.49-.22-.73-.82-.73-1.78s.95-1.72,2.85-2.57,3.15-1.44,3.73-1.78a1.91,1.91,0,0,1,1.43-.67,3.5,3.5,0,0,0,1.73-.63,7.63,7.63,0,0,1,2.23-.93l2.08-1.09a.57.57,0,0,1,.26-.1H321a2.16,2.16,0,0,0,1.09-.57,5.07,5.07,0,0,1,1.5-.83h.62c.07,0,.18-.08.31-.26a3.73,3.73,0,0,1,.94-.67l.15-.1h.52a5.2,5.2,0,0,1,1.35-.78,6.93,6.93,0,0,0,1.5-.83l4-1.55.94.1a1.35,1.35,0,0,0,.8-.49,6,6,0,0,1,2.31-1,4,4,0,0,1,1.08-1,15.77,15.77,0,0,0,2-1.66Zm-18.06,12.94-.73-.1a3.42,3.42,0,0,1-1.43.46,6,6,0,0,0-2.18,1,27.5,27.5,0,0,1-3.4,1.74q-1.92.83-1.92,1.08a21.47,21.47,0,0,0,5.3-1.39l3.73-1a3.7,3.7,0,0,0,1-.41,6.77,6.77,0,0,1,1.12-.57l.83-.63,1.14-.41c.59-.21.88-.41.88-.62a.18.18,0,0,0-.2-.21,6.44,6.44,0,0,0-3,.57A8.83,8.83,0,0,1,323.18,381.31Z"/><path class="cls-5" d="M375.66,334.56l.73-.21.51-.52H377l.46.21h.11a4.72,4.72,0,0,0,2.2-.49,11.76,11.76,0,0,1,1.62-.7,4.09,4.09,0,0,0,.81-.31.56.56,0,0,1,.27-.11l.83.11c.28,0,.65-.49,1.12-1.48a5.79,5.79,0,0,1,1.57-2.15,6.73,6.73,0,0,0,1.76-2.53,4.14,4.14,0,0,0,.47-.81c.17-.36.31-.54.41-.54.52,0,.93-.33,1.25-1,1-1.21,1.87-1.82,2.53-1.82.86,0,1.47.83,1.81,2.49l.52,2s-.09.28-.26.75a3.58,3.58,0,0,0-.23,1.4,3.08,3.08,0,0,1-.06.93,1.73,1.73,0,0,0-.07.54c0,.28.29.42.88.42a3.33,3.33,0,0,0,1.14-.42l.31-.1a1.76,1.76,0,0,0,.88.31,13.17,13.17,0,0,0,1.47-.52,13.84,13.84,0,0,1,1.74-.57,6,6,0,0,0,1.24-.41h.62l.42.15a2.17,2.17,0,0,0,.85-.44,5.36,5.36,0,0,1,2.46-.54l.72-.31h.21q1.71,0,1.71,1.5a2.59,2.59,0,0,1-.49,1.09,6.93,6.93,0,0,0-.8,1.76l-2.39,3a3.17,3.17,0,0,1-2.38,1.55c-.14,0-.57-.46-1.29-1.39,0-.07-.07-.11-.21-.11a3.18,3.18,0,0,0-1.09.21,2.84,2.84,0,0,1-.93.21c-.1,0-1,.26-2.74.77l-1.25.21a5.51,5.51,0,0,0-1,.21l-2.64.52a4.65,4.65,0,0,0-2.13,2.53c0,.07-.17.23-.52.47l-2.33,4.24a2.06,2.06,0,0,0-1.5,1.35l-.21.31a1.85,1.85,0,0,0-1,.65,5.28,5.28,0,0,1-.88.85l-.93,1.4c-.38.48-.76,1-1.14,1.58a6,6,0,0,0-.83,1.81,3.35,3.35,0,0,1-.42,1.11.85.85,0,0,0-.15.57l-.16.42a1.94,1.94,0,0,0-.62,1.4l.21.82c-.49,1.66-.73,2.54-.73,2.65a3.83,3.83,0,0,0,.1.56v.32a6.74,6.74,0,0,1-.83,2.84l.11.83-.31,2.33a8.37,8.37,0,0,0,.31,1.71c-.14.14-.21.24-.21.31a5.06,5.06,0,0,0,1.53,3.19c1,1.15,1.53,3,1.53,5.41a3.62,3.62,0,0,1-.16.9,7.23,7.23,0,0,0-.2,1.3,2.12,2.12,0,0,1-.81,1.37,2.09,2.09,0,0,1-1.27.67q-2.75,0-4.1-4a22.43,22.43,0,0,1-1.34-5.12l.1-2-.31-1,.31-4.55-.21-1.09,1.2-4.45v-1.61a3.77,3.77,0,0,1,.72-.83c0-.06-.07-.1-.21-.1s-.48.21-.83.62a6.79,6.79,0,0,1-1.29,1.19l-.42.73a1.16,1.16,0,0,0-.41-.21,11.41,11.41,0,0,0-1.71,2.43,2.33,2.33,0,0,0-1.72,1.25,1.89,1.89,0,0,1-1.71,1.08l-.21.11c-.13,1-.62,1.5-1.45,1.5l-.2.1c-.52,1.18-1.06,1.75-1.61,1.71a3.4,3.4,0,0,1-2.54,2.12,2.07,2.07,0,0,1-.91.94,3.34,3.34,0,0,0-.86.57.71.71,0,0,1-.46.25c-.45,0-.68-.48-.68-1.45a1.61,1.61,0,0,1,.34-.9,1.67,1.67,0,0,0,.34-.7c0-.07-.18-.28-.52-.62,0-1.07.27-1.74.83-2a2.8,2.8,0,0,0,1.24-1.19,1.56,1.56,0,0,1,1-.88c.51-.17.77-.4.77-.68s.45-.72,1.35-1.44a12.55,12.55,0,0,0,2-1.89c.42-.54.76-.81,1-.81l.21-.2c.06-.87.39-1.3,1-1.3l.52-.31.1-.41.31-.21h.42l.26-.21a2.55,2.55,0,0,1,1.22-2,28.26,28.26,0,0,0,4.06-4.06,23.22,23.22,0,0,0,3.32-4.27,18.1,18.1,0,0,1,1.32-2.51,6.84,6.84,0,0,0,1.07-3,1.89,1.89,0,0,0-.31-.42l-2.23,1.09c0-.1-.35-.26-1-.46a4.15,4.15,0,0,0-1.13.93c-.25.31-.44.46-.57.46l-.73-.1-2.28.26a10.5,10.5,0,0,0-4.61,1.24l-2.12.62h-.46a2.87,2.87,0,0,0-1.25.52l-1.19-.1a6.17,6.17,0,0,1-2.43.88,5.41,5.41,0,0,1-.62-.11l-5.28,1.45a13.1,13.1,0,0,0-2.8,2.13l-.41.1c-.35,0-.75-.39-1.22-1.16a4.16,4.16,0,0,1-.7-2.1q0-5.13,8.8-6l2.13-.82h.1l.57.2h.21a2.38,2.38,0,0,0,1-.39,14.84,14.84,0,0,1,3-1l2.13-.57.67.1a2.26,2.26,0,0,0,1.16-.41,4.93,4.93,0,0,1,2-.6,8.75,8.75,0,0,0,1.84-.39l.83-.2a2.53,2.53,0,0,0,.85-.37,3.43,3.43,0,0,1,1.68-.36A3.47,3.47,0,0,1,375.66,334.56Z"/><path class="cls-5" d="M417,375.93l-2.44,2.12a.6.6,0,0,0-.41-.21c-.35,0-.77.31-1.27.93s-.86.94-1.06.94l-.52-.11a6.79,6.79,0,0,1-1.87,1.14,8.08,8.08,0,0,0-1.37.57,4,4,0,0,1-1.45.47,1.65,1.65,0,0,0-1.06.44,3.33,3.33,0,0,1-2,.39l-.83-.11a2.9,2.9,0,0,1-.88.31,1.32,1.32,0,0,1-.89-.44,1.72,1.72,0,0,0-1-.49,1.78,1.78,0,0,1-1.11-.72,3.94,3.94,0,0,0-1.06-.94,2.16,2.16,0,0,1-.81-.72l-.72-.62a6.12,6.12,0,0,1-1.71-2.28,6.42,6.42,0,0,1-.83-2.59v-.21l.1-1-.1-1.14a3.42,3.42,0,0,0,.52-.88v-1.66l1.24-4.14c.07-.17-.07-.39-.41-.67a2.09,2.09,0,0,1-1,.93,1,1,0,0,0-.7.73q-.19.57-.6.57l-.63-.21a5.08,5.08,0,0,0-.47,1.06,1.28,1.28,0,0,1-1.25,1c-.63,0-.94-.24-.94-.73l.1-.93-.31-1.29a4.13,4.13,0,0,1,.83-1.63,3.08,3.08,0,0,1,1.53-1.4,2,2,0,0,0,1.19-1,7.81,7.81,0,0,1,2.16-1.94,2.57,2.57,0,0,0,1.6-1.34,6.13,6.13,0,0,1,1.9-.94,3.68,3.68,0,0,0,1.76-1.06A14.1,14.1,0,0,1,403.7,354a11.11,11.11,0,0,1,4.28-1.48,4.27,4.27,0,0,0,1.14-.23c.48-.16.93-.29,1.35-.42a6.39,6.39,0,0,0,1.29-.56,2.39,2.39,0,0,1,1.09-.39l1.51.51a13.24,13.24,0,0,1,2,.68,5.31,5.31,0,0,0,1.06.44,11.76,11.76,0,0,1,2,.9,2.22,2.22,0,0,1,1,2.13,11.6,11.6,0,0,0-.88,1.39q0,.21,1.2.63c.27.51.69,1.19,1.24,2l.57,1.81.1,4.24-.1.42c-.38.34-.57.57-.57.67l.16,1-.42,1.45a1.27,1.27,0,0,1-.52.88.94.94,0,0,0-.46.51l-.31.42a7.35,7.35,0,0,0-.44.9,4,4,0,0,1-.76,1.17,1.79,1.79,0,0,0-.51,1,1.19,1.19,0,0,1-.52.83,1.9,1.9,0,0,0-.6.54A1.49,1.49,0,0,1,417,375.93Zm-16.09,1.34.2,1.19.11.11h.82l.26.1a8.63,8.63,0,0,0,1.55.21,3.88,3.88,0,0,0,2.56-.8,2.74,2.74,0,0,1,1.52-.81c.38,0,.7-.26,1-.77s.42-.78.49-.78h.72l.21-.1a1.75,1.75,0,0,1,1.06-1.71,3.31,3.31,0,0,0,1.5-1.37,3.85,3.85,0,0,1,1-1.3,2.19,2.19,0,0,0,.78-1.16l.41-.63a1.06,1.06,0,0,0,.21-.77l1-1.87a9,9,0,0,0,.31-2,1.89,1.89,0,0,0-1.11-1.7,2.55,2.55,0,0,1-1.11-2.44,2.88,2.88,0,0,1,1.21-2.2c.81-.67,1.22-1.08,1.22-1.21a.28.28,0,0,0-.31-.32,6.69,6.69,0,0,0-1.19.42c-.24.48-1.46,1.12-3.67,1.91a8.13,8.13,0,0,0-1.19-.51c-.2,0-.41.2-.62.62a2.62,2.62,0,0,1-.62.88h-.67c-.07,0-.29.22-.67.67a1.81,1.81,0,0,1-1.45.67l-.62.63a2.15,2.15,0,0,1-1,1.7l-.57.68c-.34.41-.79.9-1.34,1.45l-.93,2.33a5.86,5.86,0,0,0-.57,2,1.77,1.77,0,0,1-.7.64,1,1,0,0,0-.54.86c0,.07.12.24.36.52a1.16,1.16,0,0,1,.36.62l-.2.67-.21,1.92Z"/><path class="cls-5" d="M438.13,356.2l.78-.21.31-.67a13.43,13.43,0,0,0,3.62-2.85,1.15,1.15,0,0,1,.47-.41,2.83,2.83,0,0,0,.77-.73,6.26,6.26,0,0,1,4.56-1.91c2.07,0,3.18,1.26,3.31,3.78l.32.77a21.35,21.35,0,0,1,1.16,2.95,13.33,13.33,0,0,1,.75,2.75,5.17,5.17,0,0,1-.88,2.79,20.37,20.37,0,0,0-3.47,3.89l-.52.36a9.93,9.93,0,0,1-1.08,1.86c-.69.25-1,.51-1,.78v.93a1.09,1.09,0,0,1-.23.42,7.16,7.16,0,0,0-.65,1.19l-.41.62a2.26,2.26,0,0,0-.42.85,3.9,3.9,0,0,1-.59,1.17,1.54,1.54,0,0,0-.39.83c0,.51.67.77,2,.77a3.48,3.48,0,0,0,.77-.31l.73.21a1.46,1.46,0,0,0,.52-.34,3.3,3.3,0,0,1,1.27-.54,4.83,4.83,0,0,0,1.5-.62,7.21,7.21,0,0,1,1.55-.73,5.22,5.22,0,0,0,1.73-1,6.13,6.13,0,0,1,1.64-1,4.68,4.68,0,0,0,1.5-.95,11.17,11.17,0,0,1,1.58-1.22,21.59,21.59,0,0,0,2.79-2.49,6,6,0,0,1,1.71-1.08,6.35,6.35,0,0,0,.91-1.37q.79-1.38,1.83-1.38c.73,0,1.09.35,1.09,1a1.53,1.53,0,0,1-.52,1.09v.31l.11.83a.81.81,0,0,1,.1.46c0,.14-.13.35-.39.62a2.28,2.28,0,0,0-.54,1.06,1.18,1.18,0,0,1-1,.86q-.32,1.14-.81,1.29a4.22,4.22,0,0,0-1.37,1,22.31,22.31,0,0,1-2.48,2.07,16.49,16.49,0,0,0-2.2,1.84c-.4.43-.67.64-.81.64a1,1,0,0,1-.41-.2,1.14,1.14,0,0,0-.41-.21c-.21,0-.35.24-.42.73l-.21.51a3.18,3.18,0,0,1-.77.42l-.31-.11H455c-.41,0-.62.16-.62.47l.31.52v.1c0,.48-.28.73-.83.73-.38,0-1.48.63-3.31,1.91l-1.5.31-1.24.68a2.49,2.49,0,0,0-.78-.37l-.83.26-1.5.11s-.67-.35-1.89-1a4.48,4.48,0,0,1-2.2-2.07,14.68,14.68,0,0,0-.93-2.1,4,4,0,0,1-.57-1.47,11,11,0,0,1,.41-3.55,10.27,10.27,0,0,0,.52-1.58,2.6,2.6,0,0,1,.6-1.11,5,5,0,0,0,.8-1.94,24.22,24.22,0,0,1,2.07-3.68,4.77,4.77,0,0,0,.88-1.66l.67-.93a2.89,2.89,0,0,0,.31-.8c.14-.47.31-.74.52-.8a2.73,2.73,0,0,0,.41-.94c0-1-.44-1.5-1.34-1.5-.17,0-.36.18-.57.55a3.17,3.17,0,0,1-1.43,1.06,6.07,6.07,0,0,0-1.37.77,4,4,0,0,1-1.11.65,3.9,3.9,0,0,0-1.48,1.22l-.88.41c-.27.66-.52,1-.72,1.09s-.85.24-1.92.52a3,3,0,0,0-.52.62,1.37,1.37,0,0,1-1.19.57,13.33,13.33,0,0,0-1.24,1.45,4.29,4.29,0,0,0-1.09.41l-1,.26a4.93,4.93,0,0,0-.91,1,2.15,2.15,0,0,1-1.84.68c-.52,0-.78-.42-.78-1.25a5,5,0,0,1,1.79-4,6.54,6.54,0,0,1,2.61-1.61c.56-.07.9-.27,1-.62a1.7,1.7,0,0,1,1-.85,5.8,5.8,0,0,0,1.86-1.51,5.61,5.61,0,0,1,2.31-1.58Z"/><path class="cls-5" d="M473.41,360.24l1.09-.88a1.31,1.31,0,0,0,1.34-1.3,2.8,2.8,0,0,1,1.71-2.07l.62-.88a13.94,13.94,0,0,1,4.24-2,3.87,3.87,0,0,0,1.19-.93.29.29,0,0,1,.21-.1l.83.21a5.72,5.72,0,0,0,1.73-.37,6.38,6.38,0,0,1,2.05-.36l2.17-.1a2.58,2.58,0,0,1,.85.31,3.74,3.74,0,0,0,1.58.31,2.83,2.83,0,0,1,2.1,1,3,3,0,0,1,.95,1.92,4.73,4.73,0,0,1-1.65,3.26,6.17,6.17,0,0,1-2.64,1.86,6.24,6.24,0,0,1-1.34,1.12,3.87,3.87,0,0,0-1,.72,1.3,1.3,0,0,1-.8.49.4.4,0,0,1-.31-.12.36.36,0,0,0-.31-.13c-.55,0-1.15.67-1.8,2l-.94-.11a2.77,2.77,0,0,0-1.13,1.24,1.06,1.06,0,0,1-1.09.68c-1.27,1.27-2.13,1.91-2.58,1.91a5,5,0,0,1-.73-.2,1.72,1.72,0,0,0-.41,1.08c0,.42-.28.66-.83.73l-.67.62-.51-.1-1,1.08a3.05,3.05,0,0,0-1.6.52c-.07.42-.17.94-.31,1.58s-.21,1-.21,1.06c0,1,.92,1.5,2.75,1.5l2.48-.36a3.44,3.44,0,0,0,1.84-.52,3.52,3.52,0,0,1,1.84-.51,3.19,3.19,0,0,0,.93-.21l.52.21a3.38,3.38,0,0,1,1.35-1.4,3.16,3.16,0,0,1,1.55-.62l.52-.31a1.26,1.26,0,0,1,.62-.83l.41-.37a1.2,1.2,0,0,1,.78-.41h.72l.21-.1a2.5,2.5,0,0,1,1.74-1.58,2,2,0,0,0,1.39-.75,1.24,1.24,0,0,1,1-.62,1.91,1.91,0,0,0,1.22-.7,6.32,6.32,0,0,1,1.22-1.12c.48-.34.82-.6,1-.77a.76.76,0,0,1,.49-.26c.21,0,.31.15.31.46s.07.47.21.47.2-.07.2-.21a1.72,1.72,0,0,0-.1-.52v-.36a1,1,0,0,1,.83-1l2.33-1.5c.07-.73.27-1.15.6-1.27a2.38,2.38,0,0,0,.75-.42.85.85,0,0,1,.57-.23c.44,0,.67.26.67.78l-.26,1.34.26,1.4a1.49,1.49,0,0,1-.49.85,3.72,3.72,0,0,0-.75,1.66c-.18.74-.4,1.15-.68,1.22H503a4.34,4.34,0,0,1-1.48,1.16,1.62,1.62,0,0,0-.85.65l-1.76,2c-.35.34-.64.66-.88.93s-.44.42-.57.42L497,372c0-.07-.07-.1-.21-.1-.34,0-.56.21-.64.62a2.35,2.35,0,0,1-.55,1.09,5.61,5.61,0,0,0-2,1.34l-.31.11h-.93c-.45,0-.76.33-.93,1a1.56,1.56,0,0,1-1.48,1.16,3.23,3.23,0,0,0-1.74.62,1.16,1.16,0,0,1-.46.21,6.59,6.59,0,0,0-1.45.83l-4.36,1.55a2.21,2.21,0,0,1-.67.26l-1.45.21a.82.82,0,0,1-.62-.42c-.21-.27-.35-.41-.42-.41l-.93.31a6.77,6.77,0,0,1-2,.31,2.29,2.29,0,0,1-1.14-.36,9.14,9.14,0,0,0-1-.52c-1,0-1.71-.78-2.13-2.33l-.62.1c-.14,0-.6-1.22-1.4-3.67a1.75,1.75,0,0,0-1-.6.92.92,0,0,1-.68-1c0-1.55.34-2.59,1-3.13s1.05-.94,1.12-1.22l.72-2.69a2.66,2.66,0,0,0,.52-1l1.19-2.18C472.62,361.81,472.93,361.21,473.41,360.24Zm10.95-3.11-.62.31a11.35,11.35,0,0,0-1.22.91,11.61,11.61,0,0,1-2,1.29,5.58,5.58,0,0,0-2,2.57,11.23,11.23,0,0,0-1,2.38.28.28,0,0,0,.31.31l1.76-.78a8.63,8.63,0,0,0,1.84-1.19,23.81,23.81,0,0,1,2.46-1.76l.41-.41a3.32,3.32,0,0,1,1-.75,5.33,5.33,0,0,0,1.27-1.07l.51-.2a3.89,3.89,0,0,1,1.79-1.71c.6-.21.91-.42.91-.62,0-.42-.33-.62-1-.62a2.79,2.79,0,0,0-1.24.51h-1.19a3.78,3.78,0,0,0-1.14.62Z"/></g></g></g></svg>