<?xml version="1.0" encoding="utf-8"?>
<!-- Generator: Adobe Illustrator 24.0.2, SVG Export Plug-In . SVG Version: 6.00 Build 0)  -->
<svg version="1.1" id="Capa_1" xmlns="http://www.w3.org/2000/svg" xmlns:xlink="http://www.w3.org/1999/xlink" x="0px" y="0px"
	 viewBox="0 0 180 51.1" style="enable-background:new 0 0 180 51.1;" xml:space="preserve">
<style type="text/css">
	.st0{fill:#333333;}
	.st1{fill:#FFFFFF;}
</style>
<title>logo-mocho</title>
<g id="Capa_2_1_">
	<g id="Logo">
		<polygon class="st0" points="170,0 127.6,0 127.4,0.9 126.8,0 48.8,0 48.3,0.6 47.7,0 33,0 0,41.1 10,51.1 27.5,51.1 28.5,49.9 
			29.5,51.1 44.2,51.1 44.7,50.4 45.3,51.1 124.3,51.1 124.5,50.4 125.1,51.1 167.4,51.1 180,10 		"/>
		<polygon class="st1" points="87.3,3.9 77.2,37.2 101.3,37.2 103.5,29.7 87,29.7 92.6,11.4 109.1,11.4 111.4,3.9 		"/>
		<polygon class="st1" points="130.5,3.9 126.7,16.4 117.7,16.4 121.5,3.9 113.9,3.9 103.9,37.2 111.4,37.2 115.2,24.7 124.2,24.7 
			120.3,37.2 127.9,37.2 138.1,3.9 		"/>
		<polygon class="st1" points="50.7,3.9 37.2,21.3 42.4,3.9 34.9,3.9 8.1,37.2 15.7,37.2 30.3,19 24.8,37.2 32.4,37.2 45.9,19.8 
			40.6,37.2 48.2,37.2 58.3,3.9 		"/>
		<path class="st1" d="M84.9,3.9H65.7v0h-5L50.6,37.2h24.1L84.9,3.9z M66,11.4h9l-5.6,18.3h-8.9L66,11.4z"/>
		<path class="st1" d="M164.8,3.9h-19.2v0h-5l-10.1,33.3h24.1L164.8,3.9z M145.9,11.4h9l-5.6,18.3h-8.9L145.9,11.4z"/>
	</g>
</g>
</svg>
