<svg xmlns="http://www.w3.org/2000/svg" viewBox="0 0 566.08 465.96"><defs><style>.cls-1{fill:#333;}.cls-2{fill:#fff;}.cls-3{fill:#f55255;}</style></defs><g id="Capa_2" data-name="Capa 2"><g id="Logo"><polygon class="cls-1" points="489.34 0 375.89 0 371.7 5.39 367.4 0 254.25 0 0 316.5 76.75 393.24 212.05 393.24 219.54 383.92 227.24 393.24 340.69 393.24 344.88 387.86 349.18 393.24 470.21 393.24 566.08 76.75 489.34 0"/><polygon class="cls-2" points="390.56 30 286.45 163.76 326.97 30 268.63 30 62.58 286.5 120.93 286.5 233.31 146.6 190.93 286.5 249.28 286.5 353.38 152.74 312.86 286.5 371.21 286.5 448.9 30 390.56 30"/><path class="cls-3" d="M430.35,394.51l1.38-3.45,4.49-5c2.31-3.79,4.2-6,5.7-6.73a10.25,10.25,0,0,1,1-2.59,10.91,10.91,0,0,0,1-3.79l1.56-2.76c.46-.46.69-.81.69-1a7,7,0,0,0-1.38-2.07l-.87-3.63q0-1.38-9.15-9.14h-1.38l-12.44-6-.69-1.73-1.38-.34-1.73.69h-.35L411,345.15a71.14,71.14,0,0,1-9.33-2.93,1.39,1.39,0,0,1-1,.34L393.73,341q-2.94-.69-3.54-1.47a6.68,6.68,0,0,0-2.94-1.55,8.34,8.34,0,0,1-3-1.47,4,4,0,0,0-2.77-.69l-4.32,1c0-.35-1.61-.92-4.83-1.73-.47-1.15-.81-1.73-1-1.73l-5,.69c-3.34-1.6-5.07-2.41-5.18-2.41q-.87,0-6.05-.95c-3.45-.63-5.69-1.3-6.73-2a19.74,19.74,0,0,0-4.66-2.08l-1-1a4.73,4.73,0,0,0-1.9-.69H337.6c-.69,0-1.64-.58-2.85-1.73a27.23,27.23,0,0,0-4.66-3.45,14.77,14.77,0,0,1-5-5.44,16.19,16.19,0,0,1-2.33-7.5,1,1,0,0,1-.35-.69l1-5.53q1.55-10.51,9.84-19.5a10.4,10.4,0,0,1,5.69-6.73l.69-2.42a64.58,64.58,0,0,0,7.16-6.9,19.14,19.14,0,0,1,4.92-4.23,28.76,28.76,0,0,0,4.32-3l3.12-1.38q-.17-1.55,7.7-7.33t12.27-7.6a57.16,57.16,0,0,0,5.87-2.67c1-.58,3.82-1.44,8.54-2.59q1.73-4.67,5.53-4.66h2.58l3.46-3.45,4.66.34c.22-.23.86-.95,1.89-2.16s2.77-1.81,5.18-1.81l20.88-6.38h1.39l1.38.34c.92,0,2.09-.8,3.53-2.42a7.2,7.2,0,0,1,5.61-2.41,6.18,6.18,0,0,1,2.59,1.38.31.31,0,0,0,.35.34l4.48-1.38,5.35.35,6.74-1.73a20.28,20.28,0,0,1,11.21,3.11l.35-.69v-1q0-2.92,3.28-2.93c.92,0,1.49.23,1.72.69l2.08,1.21H489A34.07,34.07,0,0,1,493.5,215c1.73-1.15,2.82-1.73,3.28-1.73a6,6,0,0,1,5.18,2.76l2.93-.34c.92-.92,1.5-1.38,1.73-1.38q1,0,2.76,2.76l1,.35h4.32c.23,0,.69.34,1.38,1L518,220a13.47,13.47,0,0,1,1.9,2.25,7.64,7.64,0,0,0,1.2,1.55,43.51,43.51,0,0,1,4.84-1.9c1.15,0,2,1,2.59,2.94,0,1.61,1,3.19,3,4.74s3,3.2,3,4.92a5.76,5.76,0,0,1,3.79,5.53l3.28,8.45-.69,2.94a17.28,17.28,0,0,1,1.38,3.1l-.69,6.39.69,6.73q0,5.35-5,9.15a7.89,7.89,0,0,0-3.37,1.46,11.77,11.77,0,0,1-2.67,1.47c-3,0-5-.72-6-2.16a13.76,13.76,0,0,0-2.84-3.19,3.26,3.26,0,0,1-1.39-2.76q0-4,5.35-7.77a3.87,3.87,0,0,0,3.46-1.55c0-2.42-.52-4.08-1.56-5a26.3,26.3,0,0,1-3.36-3.79,17.69,17.69,0,0,0-3.89-3.89,11.41,11.41,0,0,1-3.36-3.71c-.86-1.49-1.64-2.24-2.33-2.24L513,244l-5-1a60.49,60.49,0,0,1-14.5-3.63h-3.45L480.73,238a18.11,18.11,0,0,1-6.9,1l-11.4,1.73-4.66-.35q-.51,0-9.49,2.93l-1.72.35H441.9a37.32,37.32,0,0,0-4.4,1.72,46.84,46.84,0,0,1-6.82,2.42l-1.55.69a1.44,1.44,0,0,1-1,.35l-2.76-.35-15.19,7.42-2.42-1.38a20,20,0,0,0-3.27-1.38,2.14,2.14,0,0,0-2.42,2.42l-.35,3.28a18.62,18.62,0,0,0-2.93,2.07,4.34,4.34,0,0,1-1.73,1H395a5.44,5.44,0,0,0-3.88,1.82,6.07,6.07,0,0,1-3.19,2,12.88,12.88,0,0,0-4,1.55c-.23.46-1.15.93-2.76,1.38a6,6,0,0,0-3.71,3.2c-.87,1.67-1.88,2.5-3,2.5L371,273.7l-1.9,3.45c-2.41.58-3.79.92-4.14,1a20.57,20.57,0,0,1-4.48,4.48q-2.25,1.56-4.41,3.37a12,12,0,0,0-3.1,3.71,7.2,7.2,0,0,1-2.85,3q-1.9,1.13-3.28,4.57l-1.72,1.73c-2.88,2.42-4.32,5-4.32,7.77q0,2.93,4.14,4.31a19.77,19.77,0,0,1,5.18,2.24,4.75,4.75,0,0,0,3.11.87,9.59,9.59,0,0,1,4,.86q1.89.87,6.38,2.76c.58,1.84,1.15,2.76,1.73,2.76q.35,0,1.38-1.38a3.62,3.62,0,0,1,3.1-1.38q2.25,0,4.32,2.76l1.38-1h.69l2.24.69h.34l2.08-1a1.38,1.38,0,0,1,1-.34,41,41,0,0,1,5.35,1.72h.34a20.67,20.67,0,0,0,2.76-.69,10.17,10.17,0,0,1,2.94,1l2.41,1.38c0,.34.23.52.69.52a4.88,4.88,0,0,0,2.07-.78,5.29,5.29,0,0,1,2.59-.78c.92,0,1.95.64,3.1,1.9a19.27,19.27,0,0,1,3.11-1.21c1,0,2.82.87,5.35,2.59l3.27.69h3.8l5.69,1a19.5,19.5,0,0,0,5,4,2.16,2.16,0,0,1,2.41-1.9q2.76,0,8.45,2.24l1.38.35,1.39,1a25,25,0,0,1,3.62-.69c2.3,0,3.45.81,3.45,2.42a18.67,18.67,0,0,1-1,5.35c.23,0,.58.23,1,.69a4.22,4.22,0,0,1,1.9-1.38l2.76-1.55c.45-.46.8-.69,1-.69q4,0,11.22,5.52t8.28,12.6a11.12,11.12,0,0,0,1.38,4.83l-.69,2.24.35,2.76a15.27,15.27,0,0,1-.69,2.42l-.35,2.59a3.57,3.57,0,0,1-1,1.21,3.31,3.31,0,0,0-1,1.21l1,2.93v.69c0,.46-.44,1.1-1.3,1.9a5.79,5.79,0,0,0-1.64,2.24,7.42,7.42,0,0,1-1.21,2.16,6.64,6.64,0,0,0-1.2,2.68q-.36,1.54-3.37,3.53c-2,1.33-3,2.33-3,3s.23,1,.69,1a7,7,0,0,0,4.4-2,11.62,11.62,0,0,1,3.53-2.33,21.61,21.61,0,0,0,4.14-2.07l16.2-7.59q18.09-8.62,20.17-8.63a2.44,2.44,0,0,1,2.75,2.76c0,.69-.8,2-2.41,4q-.35,8.11-7.08,9.49a15.39,15.39,0,0,0-4,3.63h-1.38q-4.31,4.83-9.83,4.83h-1a23.8,23.8,0,0,1-15.53,7.08q-6,6-10,6l-2.76.69a19.77,19.77,0,0,1-6,1.72q-.35,0-1.38,1.38l-2.59,1.9a17.15,17.15,0,0,0-7.07,3.8c-2.54,2.07-4.46,3.25-5.79,3.54a20.63,20.63,0,0,0-4.22,1.46q-2.25,1-18.12,11.74l-2.25.69q-6.72,3.11-8.45,5.09a16.05,16.05,0,0,1-4.14,3.37h-.69q-4,0-9.32,5.17c-.23.58-2.74,1.53-7.51,2.85A51.06,51.06,0,0,0,370,456.47q-4.14,1-10.18,2.76a66.59,66.59,0,0,1-8.8,2.07L339,463.89q-4,.69-9.15,2.07a17.32,17.32,0,0,0-5.35-1l-3.1.34a4.31,4.31,0,0,1-2.16-1.21,18.53,18.53,0,0,0-3.88-2.33c-1.62-.75-2.42-2.73-2.42-6q0-4.32,9.5-8.54t12.44-6q1.38-1.89,4.75-2.24a11.84,11.84,0,0,0,5.78-2.07,24.37,24.37,0,0,1,7.43-3.11l6.91-3.62a1.7,1.7,0,0,1,.86-.35H363c.81,0,2-.63,3.63-1.9a16.8,16.8,0,0,1,5-2.76h2.07c.23,0,.58-.29,1-.86a12,12,0,0,1,3.11-2.25l.52-.34h1.72a17,17,0,0,1,4.5-2.59,23.93,23.93,0,0,0,5-2.76l13.48-5.18,3.11.35c.69,0,1.58-.55,2.67-1.64s3.66-2.22,7.69-3.37a13.16,13.16,0,0,1,3.63-3.28,54.67,54.67,0,0,0,6.56-5.52Zm-60.22,43.15-2.42-.35a11.39,11.39,0,0,1-4.76,1.56c-1.56.11-4,1.18-7.27,3.19a89.59,89.59,0,0,1-11.33,5.78c-4.26,1.84-6.4,3.05-6.4,3.62a71.51,71.51,0,0,0,17.65-4.66l12.46-3.45a11.69,11.69,0,0,0,3.37-1.38,22.77,22.77,0,0,1,3.72-1.9l2.77-2.07c.57-.23,1.84-.69,3.8-1.38s2.94-1.38,2.94-2.07a.61.61,0,0,0-.69-.69q-6.23,0-9.86,1.9A26.16,26.16,0,0,1,370.13,437.66Z"/></g></g></svg>