<svg xmlns="http://www.w3.org/2000/svg" viewBox="0 0 1386.49 496.08"><defs><style>.cls-1{fill:#333;}.cls-2{fill:#fff;}.cls-3{fill:#f55255;}</style></defs><g id="Capa_2" data-name="Capa 2"><g id="Logo"><polygon class="cls-1" points="1309.61 0 983.17 0 981.13 6.64 976.48 0.1 375.89 0.05 372.07 4.96 367.4 0.05 254.25 0.05 0 316.54 76.88 393.43 212.19 393.43 219.47 384.37 227.38 393.43 340.82 393.43 344.64 388.52 349.31 393.43 957.49 393.48 958.98 388.57 963.26 393.48 1289.71 393.48 1386.49 76.88 1309.61 0"/><polygon class="cls-2" points="672.34 30.1 594.64 286.59 779.91 286.59 797.53 228.94 670.45 228.94 713.22 87.76 840.69 87.76 858.35 30 672.34 30.1"/><polygon class="cls-2" points="1005.37 30 975.94 126.26 906.92 126.26 936.05 30.1 877.7 30.1 800 286.59 858.35 286.59 887.48 190.44 956.32 190.44 926.92 286.59 985.27 286.59 1063.71 30 1005.37 30"/><polygon class="cls-2" points="390.56 30.05 286.45 163.81 326.97 30.05 268.63 30.05 62.58 286.54 120.93 286.54 233.31 146.65 190.93 286.54 249.28 286.54 353.38 152.78 312.86 286.54 371.21 286.54 448.9 30.05 390.56 30.05"/><path class="cls-2" d="M653.58,30H506v.1H467.57l-77.7,256.49H575.14ZM508.45,87.76h69.13L534.42,228.94H465.68Z"/><path class="cls-2" d="M1269.07,30h-147.6v.1h-38.41l-77.7,256.49h185.27ZM1123.94,87.76h69.13l-43.16,141.18h-68.74Z"/><path class="cls-3" d="M840,424.63l1.39-3.45,4.49-5q3.45-5.69,5.7-6.73a10.23,10.23,0,0,1,1-2.59,10.88,10.88,0,0,0,1-3.8l1.55-2.76c.46-.45.69-.8.69-1a7,7,0,0,0-1.38-2.07l-.86-3.63q0-1.38-9.15-9.14h-1.39l-12.43-6-.7-1.73-1.38-.35-1.73.69h-.34l-5.88-1.72a71.4,71.4,0,0,1-9.32-2.94,1.39,1.39,0,0,1-1,.35l-6.91-1.55q-2.94-.69-3.54-1.47a6.51,6.51,0,0,0-2.94-1.55,8.53,8.53,0,0,1-3-1.47,4,4,0,0,0-2.76-.69l-4.33,1c0-.34-1.61-.92-4.83-1.72-.46-1.15-.81-1.73-1-1.73l-5,.69q-5-2.42-5.18-2.41c-.58,0-2.59-.32-6-.95s-5.69-1.3-6.73-2a20,20,0,0,0-4.66-2.07l-1-1a4.59,4.59,0,0,0-1.9-.69h-3.11c-.69,0-1.64-.58-2.84-1.73a27.63,27.63,0,0,0-4.66-3.45,14.88,14.88,0,0,1-5-5.44,16.19,16.19,0,0,1-2.33-7.51,1,1,0,0,1-.34-.69l1-5.52q1.56-10.53,9.84-19.5a10.42,10.42,0,0,1,5.69-6.73l.69-2.42a65.81,65.81,0,0,0,7.17-6.9,18.63,18.63,0,0,1,4.92-4.23,29.12,29.12,0,0,0,4.31-3l3.13-1.38q-.18-1.56,7.69-7.34t12.27-7.59a57.16,57.16,0,0,0,5.87-2.67q1.47-.87,8.55-2.59c1.14-3.11,3-4.66,5.52-4.66h2.59l3.45-3.46,4.66.35c.23-.23.86-1,1.9-2.16s2.76-1.81,5.17-1.81l20.89-6.39h1.38l1.38.35c.92,0,2.1-.8,3.54-2.42a7.14,7.14,0,0,1,5.61-2.41,6.24,6.24,0,0,1,2.59,1.38.3.3,0,0,0,.34.34l4.49-1.38,5.35.35,6.73-1.73a20.34,20.34,0,0,1,11.22,3.11l.34-.69v-1q0-2.92,3.28-2.93c.92,0,1.5.23,1.73.69l2.07,1.21h1.21a34.34,34.34,0,0,1,4.48,2.07c1.73-1.15,2.82-1.73,3.28-1.73a6,6,0,0,1,5.18,2.76l2.93-.34c.92-.92,1.5-1.38,1.73-1.38q1,0,2.76,2.76l1,.34h4.31c.23,0,.69.35,1.38,1l1.9,1.55a13.47,13.47,0,0,1,1.9,2.25,8,8,0,0,0,1.21,1.55,42.35,42.35,0,0,1,4.83-1.9c1.15,0,2,1,2.59,2.94,0,1.61,1,3.19,3,4.74s3,3.19,3,4.92a5.76,5.76,0,0,1,3.8,5.52l3.28,8.46-.69,2.93a18.46,18.46,0,0,1,1.38,3.11l-.69,6.39.69,6.73q0,5.34-5,9.14a7.88,7.88,0,0,0-3.36,1.47,12,12,0,0,1-2.68,1.47c-3,0-5-.72-6-2.16a13.35,13.35,0,0,0-2.85-3.19,3.28,3.28,0,0,1-1.38-2.76q0-4,5.35-7.77a3.85,3.85,0,0,0,3.45-1.55q0-3.63-1.55-5a25.71,25.71,0,0,1-3.37-3.79,17.65,17.65,0,0,0-3.88-3.89,11.43,11.43,0,0,1-3.37-3.71c-.86-1.49-1.64-2.24-2.33-2.24l-2.41.34-5-1a60.61,60.61,0,0,1-14.5-3.63h-3.45l-9.32-1.38a18.11,18.11,0,0,1-6.9,1l-11.39,1.72-4.66-.34q-.53,0-9.49,2.93l-1.73.35h-4.66a35.28,35.28,0,0,0-4.4,1.72,48.07,48.07,0,0,1-6.82,2.42l-1.55.69a1.42,1.42,0,0,1-1,.34l-2.76-.34L819.82,286l-2.41-1.38a19.85,19.85,0,0,0-3.28-1.38,2.14,2.14,0,0,0-2.42,2.42l-.34,3.27a18.89,18.89,0,0,0-2.94,2.08,4.3,4.3,0,0,1-1.72,1h-2.07a5.49,5.49,0,0,0-3.89,1.81,6.1,6.1,0,0,1-3.19,2,12.81,12.81,0,0,0-4,1.55q-.35.69-2.76,1.38a6,6,0,0,0-3.71,3.2c-.86,1.66-1.87,2.5-3,2.5l-3.45-.69-1.9,3.45c-2.42.58-3.8.92-4.14,1a20.66,20.66,0,0,1-4.49,4.49c-1.5,1-3,2.16-4.4,3.37a11.91,11.91,0,0,0-3.11,3.71,7.14,7.14,0,0,1-2.85,3c-1.26.75-2.36,2.27-3.28,4.57l-1.72,1.73q-4.32,3.62-4.32,7.76,0,2.94,4.15,4.32a19.64,19.64,0,0,1,5.17,2.24,4.75,4.75,0,0,0,3.11.87,9.43,9.43,0,0,1,4,.86q1.89.87,6.39,2.76c.57,1.84,1.14,2.76,1.72,2.76q.34,0,1.38-1.38a3.64,3.64,0,0,1,3.11-1.38q2.23,0,4.31,2.76l1.38-1h.69l2.24.69h.35l2.07-1a1.39,1.39,0,0,1,1-.34,40.46,40.46,0,0,1,5.35,1.72h.35a20.67,20.67,0,0,0,2.76-.69,10,10,0,0,1,2.93,1l2.41,1.38c0,.34.23.52.69.52a4.88,4.88,0,0,0,2.07-.78,5.32,5.32,0,0,1,2.59-.78c.92,0,2,.64,3.11,1.9a19.37,19.37,0,0,1,3.1-1.21c1,0,2.82.87,5.35,2.59l3.28.69h3.79l5.7,1a19.3,19.3,0,0,0,5,4,2.17,2.17,0,0,1,2.42-1.9c1.84,0,4.65.75,8.45,2.24l1.38.35,1.38,1a23.62,23.62,0,0,1,3.62-.69c2.3,0,3.45.81,3.45,2.42a18.66,18.66,0,0,1-1,5.35c.23,0,.57.23,1,.69a4.28,4.28,0,0,1,1.9-1.38l2.76-1.56c.46-.45.8-.69,1-.69q4,0,11.22,5.53t8.28,12.6a11,11,0,0,0,1.39,4.83l-.7,2.24.35,2.76a14.14,14.14,0,0,1-.69,2.42l-.35,2.59a3.46,3.46,0,0,1-1,1.21,3.46,3.46,0,0,0-1,1.2l1,2.94v.69c0,.46-.43,1.09-1.3,1.9a5.65,5.65,0,0,0-1.63,2.24,7.92,7.92,0,0,1-1.21,2.16,6.67,6.67,0,0,0-1.21,2.67q-.35,1.56-3.37,3.54t-3,3c0,.69.23,1,.69,1a7,7,0,0,0,4.4-2,11.54,11.54,0,0,1,3.53-2.33,22,22,0,0,0,4.14-2.07l16.2-7.59q18.1-8.62,20.17-8.63A2.44,2.44,0,0,1,925,402q0,1-2.42,4-.35,8.11-7.08,9.49a15.17,15.17,0,0,0-4,3.63h-1.38q-4.32,4.83-9.84,4.83h-1A23.72,23.72,0,0,1,883.75,431q-6,6-10,6l-2.76.7a19.77,19.77,0,0,1-6,1.72q-.35,0-1.38,1.38l-2.58,1.9a17.18,17.18,0,0,0-7.08,3.8q-3.79,3.1-5.78,3.54a19.92,19.92,0,0,0-4.23,1.46q-2.25,1-18.12,11.74l-2.24.69q-6.74,3.11-8.46,5.09a15.69,15.69,0,0,1-4.14,3.36h-.69q-4,0-9.32,5.18-.34.87-7.51,2.85a51.2,51.2,0,0,0-13.72,6.13q-4.14,1-10.18,2.76a66.59,66.59,0,0,1-8.8,2.07L748.63,494c-2.65.46-5.69,1.15-9.15,2.07a17.36,17.36,0,0,0-5.34-1l-3.11.35a4.4,4.4,0,0,1-2.16-1.21,18.53,18.53,0,0,0-3.88-2.33q-2.41-1.12-2.42-6,0-4.32,9.5-8.55t12.44-6c.92-1.27,2.5-2,4.75-2.24a11.88,11.88,0,0,0,5.79-2.07,24.26,24.26,0,0,1,7.43-3.11l6.91-3.63a1.73,1.73,0,0,1,.86-.34h2.42c.8,0,2-.63,3.62-1.9a17,17,0,0,1,5-2.76h2.08c.22,0,.57-.29,1-.86a11.8,11.8,0,0,1,3.11-2.25l.52-.34h1.73a16.73,16.73,0,0,1,4.49-2.59,24,24,0,0,0,5-2.76l13.47-5.18,3.11.34c.69,0,1.58-.54,2.68-1.63s3.65-2.22,7.68-3.37a13.32,13.32,0,0,1,3.63-3.28,56.43,56.43,0,0,0,6.57-5.52Zm-60.21,43.15-2.43-.35a11.19,11.19,0,0,1-4.76,1.55c-1.55.12-4,1.18-7.26,3.2A91,91,0,0,1,754,478q-6.4,2.76-6.4,3.62a71.55,71.55,0,0,0,17.64-4.66l12.46-3.45a11.56,11.56,0,0,0,3.37-1.38,23.68,23.68,0,0,1,3.72-1.9l2.77-2.07c.58-.23,1.84-.69,3.8-1.38s3-1.38,3-2.07a.61.61,0,0,0-.69-.69c-4.16,0-7.44.63-9.87,1.9A27.61,27.61,0,0,1,779.82,467.78Z"/><path class="cls-3" d="M954.77,311.93l2.41-.69,1.73-1.73h.35l1.55.69h.34a15.86,15.86,0,0,0,7.36-1.64,37.85,37.85,0,0,1,5.4-2.33,13.74,13.74,0,0,0,2.7-1,1.73,1.73,0,0,1,.87-.35l2.8.35q1.38,0,3.7-4.92a19.1,19.1,0,0,1,5.26-7.16q2.94-2.25,5.87-8.46a14.67,14.67,0,0,0,1.55-2.67c.58-1.21,1-1.82,1.38-1.82,1.72,0,3.11-1.09,4.14-3.28q5.18-6,8.45-6,4.3,0,6,8.29l1.72,6.56c0,.11-.29.94-.86,2.5a11.87,11.87,0,0,0-.78,4.66,10.58,10.58,0,0,1-.17,3.1,5.87,5.87,0,0,0-.26,1.82q0,1.38,2.94,1.38a10.84,10.84,0,0,0,3.79-1.38l1-.35a6,6,0,0,0,2.93,1,49.1,49.1,0,0,0,4.92-1.73,40.68,40.68,0,0,1,5.78-1.9,20.15,20.15,0,0,0,4.15-1.38h2.07l1.38.52a7.44,7.44,0,0,0,2.84-1.47c1.44-1,4.17-1.58,8.2-1.81l2.42-1h.69c3.8,0,5.69,1.66,5.69,5a8.69,8.69,0,0,1-1.64,3.63,25,25,0,0,0-2.67,5.86l-7.94,10q-4,5.18-7.94,5.18-.69,0-4.31-4.66c0-.23-.23-.35-.69-.35a10.68,10.68,0,0,0-3.63.7,9.54,9.54,0,0,1-3.1.69q-.52,0-9.15,2.58l-4.14.7a17.94,17.94,0,0,0-3.28.69l-8.81,1.72q-4.5,2.25-7.08,8.46c0,.23-.58.75-1.73,1.55l-7.77,14.15a6.86,6.86,0,0,0-5,4.49l-.69,1a6,6,0,0,0-3.46,2.15,18.76,18.76,0,0,1-2.94,2.85l-3.11,4.66q-1.9,2.42-3.8,5.27a20.37,20.37,0,0,0-2.77,6,11.84,11.84,0,0,1-1.38,3.71,2.62,2.62,0,0,0-.52,1.89l-.52,1.39a6.41,6.41,0,0,0-2.08,4.66l.7,2.76c-1.62,5.52-2.42,8.45-2.42,8.8a13.28,13.28,0,0,0,.34,1.9v1q0,3.81-2.77,9.49l.35,2.77-1,7.76a28.65,28.65,0,0,0,1,5.7c-.46.46-.69.8-.69,1,0,3.23,1.7,6.76,5.1,10.62s5.1,9.87,5.1,18a13.39,13.39,0,0,1-.52,3,23.37,23.37,0,0,0-.69,4.32,7,7,0,0,1-2.68,4.57q-2.5,2.25-4.23,2.25-9.18,0-13.67-13.29t-4.49-17.09l.35-6.73-1-3.45,1-15.19-.7-3.62,4-14.85v-5.35c0-.23.81-1.15,2.42-2.76,0-.23-.23-.34-.69-.34-.69,0-1.62.69-2.77,2.07a24.28,24.28,0,0,1-4.32,4l-1.38,2.41a3.9,3.9,0,0,0-1.39-.69c-.57.23-2.48,2.94-5.7,8.11a7.67,7.67,0,0,0-5.71,4.15,6.34,6.34,0,0,1-5.7,3.62l-.7.35q-.69,5-4.84,5l-.69.35c-1.73,3.91-3.51,5.81-5.36,5.69q-1.72,5.17-8.47,7.08a6.84,6.84,0,0,1-3,3.1,12.37,12.37,0,0,0-2.85,1.9,2.36,2.36,0,0,1-1.56.87q-2.23,0-2.24-4.84a5.47,5.47,0,0,1,1.12-3,5.24,5.24,0,0,0,1.12-2.33c0-.23-.57-.92-1.72-2.07,0-3.56.92-5.81,2.76-6.73a9.23,9.23,0,0,0,4.15-4A5.25,5.25,0,0,1,904,407.2c1.73-.58,2.6-1.32,2.6-2.25s1.49-2.41,4.49-4.83a40.7,40.7,0,0,0,6.56-6.3c1.38-1.78,2.54-2.67,3.46-2.67l.69-.69q.35-4.32,3.28-4.32l1.73-1,.35-1.38,1-.69h1.39l.86-.7a8.49,8.49,0,0,1,4.06-6.73q3.7-2.42,13.56-13.54t11.06-14.24a58.83,58.83,0,0,1,4.41-8.37,22.58,22.58,0,0,0,3.54-9.93,5.62,5.62,0,0,0-1-1.38l-7.43,3.63q0-.52-3.45-1.56a13.68,13.68,0,0,0-3.79,3.11c-.81,1-1.44,1.55-1.9,1.55l-2.42-.34-7.59.86q-10.18.87-15.36,4.14L917,341.61h-1.55a9.2,9.2,0,0,0-4.14,1.73l-4-.35c-3.68,2-6.39,2.94-8.11,2.94a15.94,15.94,0,0,1-2.08-.35l-17.6,4.84q-2.07.69-9.32,7.07l-1.38.35q-1.73,0-4.06-3.89a13.91,13.91,0,0,1-2.33-7q0-17.08,29.34-19.84l7.08-2.76h.35l1.89.69h.69a7.91,7.91,0,0,0,3.28-1.3q2.25-1.29,10-3.19l7.08-1.9,2.24.35a7.38,7.38,0,0,0,3.89-1.39,16.77,16.77,0,0,1,6.55-2,28.56,28.56,0,0,0,6.13-1.3l2.76-.68a8.34,8.34,0,0,0,2.85-1.21,11.38,11.38,0,0,1,5.61-1.21A12.25,12.25,0,0,1,954.77,311.93Z"/><path class="cls-3" d="M1092.59,449.83l-8.12,7.07a2,2,0,0,0-1.38-.69c-1.15,0-2.57,1-4.23,3.11s-2.85,3.1-3.55,3.1l-1.72-.34c-2.88,2.19-4.95,3.45-6.22,3.8a24.15,24.15,0,0,0-4.58,1.9,13.07,13.07,0,0,1-4.83,1.55,5.6,5.6,0,0,0-3.54,1.47c-.93.86-3.17,1.29-6.74,1.29l-2.76-.35a9.84,9.84,0,0,1-2.94,1,4.47,4.47,0,0,1-2.94-1.47,5.7,5.7,0,0,0-3.36-1.64,5.93,5.93,0,0,1-3.72-2.41,12.7,12.7,0,0,0-3.53-3.11,7.09,7.09,0,0,1-2.68-2.42l-2.42-2.07q-2.94-2.07-5.7-7.59t-2.76-8.63v-.69l.34-3.28-.34-3.8a11,11,0,0,0,1.72-2.93v-5.52l4.15-13.81c.23-.57-.24-1.32-1.38-2.24a7.06,7.06,0,0,1-3.47,3.1,3.42,3.42,0,0,0-2.34,2.42c-.4,1.27-1.07,1.9-2,1.9l-2.09-.69a18.15,18.15,0,0,0-1.56,3.54c-.81,2.13-2.21,3.19-4.17,3.19s-3.13-.81-3.13-2.42l.34-3.1-1-4.32q0-1.38,2.77-5.44t5.1-4.66a6.71,6.71,0,0,0,4-3.27c1.1-1.79,3.49-3.94,7.18-6.48,2.07-.45,3.86-1.95,5.36-4.48a19.5,19.5,0,0,1,6.3-3.11,12.23,12.23,0,0,0,5.88-3.54q2-2.32,11.76-7.25t14.26-4.92a13.63,13.63,0,0,0,3.81-.77c1.61-.52,3.11-1,4.49-1.38a19.73,19.73,0,0,0,4.32-1.9,8,8,0,0,1,3.64-1.3l5,1.73a42.21,42.21,0,0,1,6.74,2.24,16.25,16.25,0,0,0,3.55,1.47,42.2,42.2,0,0,1,6.57,3c2.24,1.27,3.37,3.63,3.37,7.08a32.62,32.62,0,0,0-2.94,4.66c0,.46,1.32,1.15,4,2.07.92,1.72,2.3,4,4.15,6.73l1.89,6,.35,14.15-.35,1.38q-1.89,1.72-1.89,2.25l.51,3.45-1.38,4.83a4.21,4.21,0,0,1-1.73,2.93,3.24,3.24,0,0,0-1.55,1.73l-1,1.38a26.48,26.48,0,0,0-1.47,3,13,13,0,0,1-2.51,3.88,6.06,6.06,0,0,0-1.72,3.28,3.9,3.9,0,0,1-1.73,2.76,6.16,6.16,0,0,0-2,1.82A4.82,4.82,0,0,1,1092.59,449.83ZM1039,454.31l.69,4,.34.35h2.76l.86.34a28.93,28.93,0,0,0,5.16.69,12.87,12.87,0,0,0,8.53-2.67c2.12-1.78,3.81-2.68,5.08-2.68s2.32-.86,3.18-2.59,1.41-2.58,1.64-2.58h2.41l.69-.35a5.9,5.9,0,0,1,3.53-5.7,10.48,10.48,0,0,0,5-4.57,12.73,12.73,0,0,1,3.36-4.31,7.25,7.25,0,0,0,2.58-3.89l1.38-2.07a3.67,3.67,0,0,0,.69-2.59l3.27-6.21a31,31,0,0,0,1-6.73c0-2.42-1.24-4.31-3.71-5.7s-3.7-4.08-3.7-8.11c0-2.64,1.35-5.09,4-7.33s4-3.6,4-4.06a.91.91,0,0,0-1-1,22.37,22.37,0,0,0-4,1.38q-1.2,2.42-12.22,6.38a27.67,27.67,0,0,0-4-1.72c-.69,0-1.37.69-2.06,2.07a9.09,9.09,0,0,1-2.07,2.93h-2.24c-.23,0-1,.75-2.24,2.25a6,6,0,0,1-4.82,2.24l-2.06,2.07q.16,2.76-3.45,5.7l-1.89,2.24q-1.72,2.07-4.48,4.83l-3.1,7.77a19.59,19.59,0,0,0-1.89,6.73,6.25,6.25,0,0,1-2.33,2.16,3.3,3.3,0,0,0-1.82,2.84c0,.24.41.81,1.21,1.73a3.94,3.94,0,0,1,1.21,2.07l-.69,2.24-.69,6.39Z"/><path class="cls-3" d="M1163,384.07l2.59-.69,1-2.24q8.46-5,12.09-9.5a3.71,3.71,0,0,1,1.55-1.38,10,10,0,0,0,2.59-2.41,20.72,20.72,0,0,1,15.18-6.39q10.37,0,11,12.6l1,2.59a66.75,66.75,0,0,1,3.88,9.84c1.67,4.94,2.5,8,2.5,9.14a17.39,17.39,0,0,1-2.93,9.32q-2.41,1.21-11.57,12.95l-1.72,1.21a34.51,34.51,0,0,1-3.63,6.21q-3.45,1.21-3.45,2.59V431a3.39,3.39,0,0,1-.77,1.38,26.46,26.46,0,0,0-2.16,4l-1.38,2.08a7.59,7.59,0,0,0-1.38,2.84,12.89,12.89,0,0,1-2,3.89,5.22,5.22,0,0,0-1.29,2.76c0,1.72,2.24,2.59,6.73,2.59a13.27,13.27,0,0,0,2.59-1l2.41.69a4.91,4.91,0,0,0,1.73-1.12,10.77,10.77,0,0,1,4.23-1.81,16.34,16.34,0,0,0,5-2.07,24.24,24.24,0,0,1,5.18-2.42,18,18,0,0,0,5.78-3.37,19.39,19.39,0,0,1,5.44-3.36,15.64,15.64,0,0,0,5-3.19,38.88,38.88,0,0,1,5.26-4.06c2-1.26,5.07-4,9.32-8.28q4.14-3.28,5.7-3.63c.23,0,1.23-1.52,3-4.57s3.82-4.58,6.12-4.58,3.63,1.16,3.63,3.46a5.12,5.12,0,0,1-1.73,3.62v1l.35,2.76a2.81,2.81,0,0,1,.34,1.55q0,.69-1.29,2.07a7.65,7.65,0,0,0-1.81,3.54q-.52,2.16-3.28,2.85-1,3.79-2.67,4.31c-1.1.35-2.62,1.5-4.58,3.45a77.29,77.29,0,0,1-8.28,6.91,58.94,58.94,0,0,0-7.34,6.12c-1.32,1.45-2.21,2.16-2.67,2.16a3.56,3.56,0,0,1-1.38-.69,3.56,3.56,0,0,0-1.38-.69c-.69,0-1.15.81-1.38,2.42l-.69,1.72a10.86,10.86,0,0,1-2.59,1.38l-1-.34h-.69c-1.39,0-2.08.52-2.08,1.55l1,1.73V459c0,1.62-.92,2.42-2.76,2.42q-1.9,0-11,6.39l-5,1-4.14,2.24a8.31,8.31,0,0,0-2.59-1.2l-2.76.86-5,.34c-.12,0-2.22-1.14-6.3-3.45s-6.53-4.6-7.34-6.9a49.24,49.24,0,0,0-3.1-7q-1.9-3.54-1.9-4.92,0-8.28,1.38-11.82a36.52,36.52,0,0,0,1.73-5.27,8.84,8.84,0,0,1,2-3.71,16,16,0,0,0,2.68-6.47q5-10,6.9-12.25a16,16,0,0,0,2.93-5.52l2.25-3.11a9.28,9.28,0,0,0,1-2.68c.46-1.55,1-2.44,1.73-2.67a9.37,9.37,0,0,0,1.38-3.11q0-5-4.49-5c-.58,0-1.21.6-1.9,1.81s-2.27,2.39-4.74,3.54a19.51,19.51,0,0,0-4.58,2.59,14.06,14.06,0,0,1-3.71,2.15,12.76,12.76,0,0,0-4.92,4.06l-2.93,1.38c-.92,2.19-1.73,3.39-2.42,3.62s-2.82.81-6.39,1.73a10.86,10.86,0,0,0-1.73,2.07,4.6,4.6,0,0,1-4,1.9,45,45,0,0,0-4.14,4.83,13.6,13.6,0,0,0-3.62,1.38l-3.46.87a15.66,15.66,0,0,0-3,3.27q-1.63,2.25-6.13,2.25c-1.72,0-2.59-1.38-2.59-4.14q0-8.46,6-13.47t8.71-5.35c1.84-.22,3-.91,3.46-2.07a5.71,5.71,0,0,1,3.36-2.84,19.65,19.65,0,0,0,6.22-5,18.15,18.15,0,0,1,7.68-5.26Z"/><path class="cls-3" d="M1280.6,397.53l3.62-2.93q4.14-.35,4.48-4.32t5.7-6.9l2.07-2.93q2.58-2.59,14.14-6.74a13.77,13.77,0,0,0,4-3.1,1,1,0,0,1,.68-.35l2.77.69a18.84,18.84,0,0,0,5.77-1.2,21,21,0,0,1,6.82-1.21l7.24-.35a9.09,9.09,0,0,1,2.85,1,12.06,12.06,0,0,0,5.26,1c2.53,0,4.85,1.16,7,3.45s3.19,4.44,3.19,6.39q0,5.36-5.51,10.87t-8.78,6.22a21.32,21.32,0,0,1-4.48,3.71,12.56,12.56,0,0,0-3.19,2.41c-1.09,1.1-2,1.64-2.67,1.64a1.25,1.25,0,0,1-1-.43,1.26,1.26,0,0,0-1-.43q-2.76,0-6,6.73l-3.1-.34a9.09,9.09,0,0,0-3.79,4.14,3.47,3.47,0,0,1-3.62,2.24c-4.24,4.26-7.12,6.39-8.61,6.39a14.43,14.43,0,0,1-2.41-.69,5.72,5.72,0,0,0-1.38,3.62c0,1.38-.92,2.19-2.76,2.42l-2.23,2.07-1.73-.35-3.44,3.63a10.11,10.11,0,0,0-5.34,1.72q-.35,2.07-1,5.27t-.69,3.54q0,5,9.15,5l8.29-1.21a11.61,11.61,0,0,0,6.12-1.72,11.63,11.63,0,0,1,6.13-1.73,11,11,0,0,0,3.11-.69l1.72.69a11.45,11.45,0,0,1,4.49-4.66c2.19-1.38,3.91-2.07,5.18-2.07l1.73-1a4.45,4.45,0,0,1,2.07-2.76l1.38-1.2a3.87,3.87,0,0,1,2.59-1.39h2.41l.69-.34c1.39-3,3.31-4.75,5.79-5.26s4-1.36,4.66-2.51a4.23,4.23,0,0,1,3.36-2.07,6.25,6.25,0,0,0,4.06-2.33,20.94,20.94,0,0,1,4.06-3.71,39.27,39.27,0,0,0,3.36-2.59,2.69,2.69,0,0,1,1.64-.86c.69,0,1,.52,1,1.55s.23,1.56.69,1.56a.61.61,0,0,0,.69-.69,5.73,5.73,0,0,0-.35-1.73v-1.21a3.43,3.43,0,0,1,2.77-3.45l7.76-5q.35-3.62,2-4.22a8,8,0,0,0,2.5-1.38,2.78,2.78,0,0,1,1.9-.78c1.49,0,2.24.86,2.24,2.59l-.86,4.49.86,4.66c0,.69-.54,1.64-1.64,2.84a12.34,12.34,0,0,0-2.5,5.53c-.58,2.47-1.32,3.82-2.25,4.05h-1q-3.12,3.29-4.93,3.88a5.46,5.46,0,0,0-2.85,2.16l-5.87,6.73q-1.73,1.72-2.94,3.11c-.8.92-1.44,1.38-1.9,1.38l-1.38-1.38c0-.23-.23-.35-.69-.35-1.15,0-1.87.69-2.16,2.08a7.67,7.67,0,0,1-1.81,3.62c-3.46,1.61-5.7,3.11-6.74,4.49l-1,.34h-3.11c-1.5,0-2.53,1.12-3.11,3.37s-2.22,3.54-4.92,3.88-4.64,1-5.79,2.07a4,4,0,0,1-1.56.69,24.16,24.16,0,0,0-4.83,2.76l-14.51,5.18a6.94,6.94,0,0,1-2.25.86l-4.83.69a2.75,2.75,0,0,1-2.07-1.38c-.69-.92-1.16-1.38-1.39-1.38l-3.1,1a23,23,0,0,1-6.57,1,7.71,7.71,0,0,1-3.8-1.2,32.93,32.93,0,0,0-3.28-1.73q-5,0-7.08-7.77l-2.07.35q-.7,0-4.67-12.26a5.84,5.84,0,0,0-3.28-2c-1.49-.4-2.24-1.52-2.24-3.36q0-7.77,3.37-10.45c2.24-1.78,3.47-3.13,3.71-4.05l2.41-9c.46-.34,1-1.49,1.73-3.45l4-7.25Q1278.18,402.37,1280.6,397.53Zm36.5-10.35-2.08,1a41.88,41.88,0,0,0-4,3,39.26,39.26,0,0,1-6.56,4.32q-3.2,1.63-6.56,8.54t-3.36,7.94a.91.91,0,0,0,1,1l5.87-2.59a28.31,28.31,0,0,0,6.13-4,82,82,0,0,1,8.19-5.87l1.39-1.38c.22-.46,1.29-1.3,3.19-2.5a17.5,17.5,0,0,0,4.23-3.54l1.72-.69c2-3.11,3.94-5,6-5.7s3-1.38,3-2.07c0-1.38-1.1-2.07-3.28-2.07a9.2,9.2,0,0,0-4.14,1.73h-4c-.46,0-1.73.69-3.8,2.07Z"/></g></g></svg>