<svg xmlns="http://www.w3.org/2000/svg" viewBox="0 0 566.08 393.24"><defs><style>.cls-1{fill:#333;}.cls-2{fill:#fff;}</style></defs><title>logo-movil</title><g id="Capa_2" data-name="Capa 2"><g id="Logo"><polygon class="cls-1" points="489.34 0 375.89 0 371.7 5.39 367.4 0 254.25 0 0 316.5 76.75 393.24 212.05 393.24 219.54 383.92 227.24 393.24 340.69 393.24 344.88 387.86 349.18 393.24 470.21 393.24 566.08 76.75 489.34 0"/><polygon class="cls-2" points="390.56 30 286.45 163.76 326.97 30 268.63 30 62.58 286.5 120.93 286.5 233.31 146.6 190.93 286.5 249.28 286.5 353.38 152.74 312.86 286.5 371.21 286.5 448.9 30 390.56 30"/></g></g></svg>