<svg xmlns="http://www.w3.org/2000/svg" viewBox="0 0 484.05 198.9"><defs><style>.cls-1{fill:#303030;}.cls-2{fill:#fff;}.cls-3{fill:#ff5257;}</style></defs><g id="Capa_2" data-name="Capa 2"><g id="Capa_1-2" data-name="Capa 1"><polygon class="cls-1" points="457.34 0.1 345.75 0.22 344.47 4.41 341.89 4.38 340.47 0.3 243.31 0.1 133.53 0 129.78 4.6 125.82 0 87.91 0 0 107.65 26.71 134.36 71.53 134.36 75.31 129.73 79.17 134.66 119.64 134.3 120.78 130.55 124.79 134.66 151.1 134.42 151.09 134.45 222.32 134.45 236.87 134.45 293.93 134.45 293.9 134.55 334 134.55 335.92 128.38 339.56 134.55 379.69 134.55 379.72 134.45 450.9 134.45 484.05 26.81 457.34 0.1"/><polygon class="cls-2" points="235.56 9.24 208 98.6 274.67 98.6 280.96 78.02 235.5 78.02 250.04 29.82 295.89 29.82 302.18 9.24 235.56 9.24"/><polygon class="cls-2" points="306.93 9.14 279.55 98.69 300.56 98.69 311.3 64.21 335.75 64.21 325.21 98.69 346.22 98.69 373.66 9.24 352.53 9.33 342.04 43.63 317.4 43.63 328.08 9.33 306.93 9.14"/><path class="cls-2" d="M164.06,9.24,136.74,98.6h66.67L230.92,9.24Zm24.69,68.59L164,78l14.74-48.2h24.65Z"/><path class="cls-2" d="M378.09,9.24,350.77,98.6h66.67L445,9.24Zm24.69,68.59L378.07,78l14.74-48.2h24.65Z"/><polygon class="cls-2" points="40.48 98.5 79.73 50.44 64.88 98.69 86.14 98.5 86.16 98.43 125.35 50.44 110.5 98.69 131.76 98.5 159.08 9.14 138.07 9.14 137.87 9.14 98.85 56.92 113.46 9.14 92.45 9.14 92.25 9.14 19.28 98.5 40.48 98.5"/><path class="cls-3" d="M418,102.05c2.29-1.47,5.05,12.68,7.42,6.25-.56-4.11-2.87-5.72-6.76-8.34-9.36-7.88-17.76,10.58-22.52,18.63,0,.31.16-6.12,1.67-7.63.47-1.5-1.06-1.43-2.39-3.09-5-6.42-7,14.52-7.74,29.11a27.64,27.64,0,0,0-4.35,2.22c-4.53,3.17,4.11-22.25-11.13-26.07-8.9-6-14.85,13.63-13.67,29.17-3,5.76-6.63,11.08-10.44,14.52-5.05-18.38-.06-48.26,3.43-70.66.84-4.85.27-3.83,6.87-5.63,5.7-1.28,31-8.24,35.6,1.92,2,.58,0-5.37-1.28-7.51-7.29-7.21-25.14-4-34.87-1.5-2.81.53-4.66,1.67-4.05.24.46-2.92,2.57-12.1,2.45-11.64-5.18-10.06-8.63,5.74-10.58,14.4-7.32,3.63-17,5.87-25.48,9.46a12.57,12.57,0,0,0-1.09-1c-3-3.92-8.26-7.54-11.94-4.9-13.11,9.5-25.92,36.94-10.33,51.2,6.67,7.56,17.15,8.42,23.59,14.43-9.36,9.35-35.61,45.59-12.55,53.17,11.4,1.51,23.2-26.63,21.65-39.36a20.89,20.89,0,0,0-3.22-10.17c-.51-.87.52-.8,1.68-2.39a83.56,83.56,0,0,1,9.55-8.57c.35,12.22,3.14,22.42,11.58,23.48,4.84.58,5.17-.33,6.93-2.26a82.62,82.62,0,0,0,4.8-6.83c1.86,4.32,4.85,7.06,9.17,6.69,8,.87,9.81-10.41,11.21-15.86a24.33,24.33,0,0,0,6.21-1c-.13,3.21-.19,5.66-.22,6.73a8.69,8.69,0,0,0,4.58,3.36c3.69,3,2.54-10.45,4.47-14.17C400.35,126.13,405.87,108.32,418,102.05ZM305.88,193.39c-1.19.6-.77.44-1,.09-1.65-13.34,8.56-29.88,17.84-40.77C324.69,164.59,316.57,185.72,305.88,193.39Zm16-49.19c-4.64-5.69-16.56-9.81-22.08-13.4-5.69-8.45-1.17-21.52,4.5-32.21.73-2,10.51-16.31,12.46-11.11a38.49,38.49,0,0,0-6.2,3.84c.34,5.72,2.52,5.87,7.29,3.85a119.18,119.18,0,0,1-.64,17.5c1.55,3.51,4.22,4.87,5.72.41,2.46-6.42,3.33-14.48,1.2-20.81A105.54,105.54,0,0,1,340,86.19c7.4-4.5.94,6.82,1.3,11.52-.89,6.83-3.31,20.69-3.76,33.8C332,134.64,324.28,142.14,321.85,144.2ZM370,148.92a42.42,42.42,0,0,1-2.09,4.32c-.79-2-1.47-7.2-1.81-11.39a5.39,5.39,0,0,0-.23-4.08c0-.51,0-.93,0-1.23C371,142.93,374.49,138.41,370,148.92Zm3.66-12c-2.55,1.87-5.53-13.37-3.73-18.5C373.43,109.7,375.29,134.36,373.63,136.88Z"/><path class="cls-3" d="M443.66,135.28c-4.73,4.87-7.81,10.9-12.41,15.4-7.18,7.53-8.59,9.37-14.5,12.32-3.63-2.95-2.53-12.31-1.61-17.1.32-1.63.95-.88,1.5-.86,7.17,1.57,13.67-7.06,14.07-14.24.14-3.61-3.09-4.24-5.18-5.75-7.88-4.47-11.21,2.73-14.39,9.47-4.68,10.8-7.22,28.52,6.6,32h0C425.18,173.53,459.37,131.29,443.66,135.28ZM422.92,129c1.86-.24-2.1,8.41-4.12,10.39C412.27,147.87,420,131.59,422.92,129Z"/></g></g></svg>